<?xml version="1.0" encoding="utf-8"?>
<svg viewBox="0 0 512 512" xmlns="http://www.w3.org/2000/svg">
  <g style="" transform="matrix(1.952827, 0, 0, 2.083589, -116.388484, -327.94945)">
    <rect x="104.361" y="186.811" width="217.243" height="178.944" style="stroke: rgb(0, 0, 0); paint-order: fill; stroke-width: 0.0595823px; stroke-opacity: 0; fill: rgb(252, 255, 252);">
      <title>background</title>
    </rect>
    <g transform="matrix(1, 0, 0, 1, -56.422985, -49.134926)">
      <path d="M 192.107 422.762 L 192.107 387.762 C 216.747 370.402 236.347 355.702 250.907 343.662 C 265.467 331.622 275.967 321.029 282.407 311.882 C 288.847 302.735 292.067 294.149 292.067 286.122 C 292.067 278.842 289.5 273.335 284.367 269.602 C 279.234 265.869 273.214 264.002 266.307 264.002 C 260.52 264.002 254.827 265.635 249.227 268.902 C 243.627 272.169 239.8 278.189 237.747 286.962 L 199.107 272.962 C 204.147 259.895 212.827 249.862 225.147 242.862 C 228.517 240.948 232.08 239.229 235.756 237.839 C 236.28 237.641 236.806 237.449 237.334 237.265 C 237.939 237.054 238.546 236.852 239.155 236.66 C 239.853 236.44 240.554 236.233 241.258 236.04 L 241.258 236.04 L 241.258 236.04 L 241.258 236.04 L 241.658 235.942 C 251.369 235.958 241.03 235.891 268.267 235.942 C 298.437 235.998 291.134 236.033 294.705 235.93 C 294.705 235.93 295.291 236.12 296.164 236.411 C 296.929 236.666 297.915 237 298.92 237.352 C 300.194 237.799 301.5 238.276 302.427 238.662 C 312.507 242.862 320.44 249.022 326.227 257.142 C 332.014 265.262 334.907 275.202 334.907 286.962 C 334.907 305.815 327.02 323.315 311.247 339.462 C 295.474 355.609 273.867 371.709 246.427 387.762 L 335.747 387.762 L 335.747 422.762 L 192.107 422.762 Z" style="stroke-opacity: 0; text-transform: capitalize; white-space: pre;"/>
      <path d="M 335.927 422.87 L 335.927 297.496 L 302.235 297.823 L 302.235 263.401 C 312.128 263.401 311.474 262.561 318.007 261.534 C 324.54 260.508 330 258.083 334.387 254.258 C 338.774 250.433 342.647 244.323 346.007 235.928 L 378.207 235.928 L 378.207 422.87 L 335.927 422.87 Z" style="stroke-opacity: 0; text-transform: capitalize; white-space: pre; fill: rgb(252, 255, 252);"/>
      <path d="M 149.715 422.87 L 149.715 297.511 L 116.023 297.838 L 116.023 263.421 C 125.916 263.421 125.262 262.58 131.795 261.554 C 138.328 260.527 143.788 258.103 148.175 254.278 C 152.562 250.454 156.435 244.345 159.795 235.95 L 191.995 235.95 L 191.995 422.87 L 149.715 422.87 Z" style="stroke-opacity: 0; text-transform: capitalize; white-space: pre; fill: rgb(252, 255, 252);"/>
    </g>
  </g>
</svg>